# xmcd CD database file
#
# Track frame offsets:
#	150
#	12261
#	26758
#	39516
#	48837
#	61125
#	73861
#	84011
#	95525
#	104646
#	115475
#	127170
#	138286
#	152082
#	165969
#
# Disc length: 2361 seconds
#
# Revision: 0
# Processed by: cddbd v1.5.2PL0 Copyright (c) Steve Scherf et al.
# Submitted via: CDex 1.51
#
DISCID=c209370f
DTITLE=Country Fever (compilation) - Classics CD3
DYEAR=1900
DGENRE=Country
TTITLE0=George Morgan - I couldn't see
TTITLE1=The Kendalls - Making believe
TTITLE2=Johnny Cash - Folsom prison blues
TTITLE3=Willie Nelson - One step beyond
TTITLE4=Merle Haggard - Okie from Muskogee
TTITLE5=Ernie Ashworth - Talk back trembling lips
TTITLE6=Pee Wee King - Slow poke
TTITLE7=Guy Mitchell - Travelling shoes
TTITLE8=Frankie Laine - High noon
TTITLE9=Roger Milluer - King of the road
TTITLE10=Conway Twitty - Linda on my mind
TTITLE11=Johnny Tillotson - Raining in my heart
TTITLE12=Jan Vardoen - This guy's in love with you
TTITLE13=Wayne Raney - Why don't you haul off and love me
TTITLE14=Jack Greene - There goes my everything
EXTD=
EXTT0=
EXTT1=
EXTT2=
EXTT3=
EXTT4=
EXTT5=
EXTT6=
EXTT7=
EXTT8=
EXTT9=
EXTT10=
EXTT11=
EXTT12=
EXTT13=
EXTT14=
PLAYORDER=
